<?xml version="1.0" standalone="no"?>
<!DOCTYPE svg PUBLIC "-//W3C//DTD SVG 20010904//EN"
 "http://www.w3.org/TR/2001/REC-SVG-20010904/DTD/svg10.dtd">
<svg version="1.0" xmlns="http://www.w3.org/2000/svg"
 width="530.000000pt" height="530.000000pt" viewBox="0 0 530.000000 530.000000"
 preserveAspectRatio="xMidYMid meet">
<metadata>
Created by potrace 1.11, written by Peter Selinger 2001-2013
</metadata>
<g transform="translate(0.000000,530.000000) scale(0.100000,-0.100000)"
fill="#000000" stroke="none">
<path d="M119 4848 c-13 -5 -32 -20 -42 -34 -17 -23 -18 -52 -19 -370 0 -190
2 -347 5 -350 6 -7 5168 -6 5175 1 3 3 5 158 5 346 0 243 -4 347 -12 363 -30
54 150 51 -2572 51 -1384 1 -2527 -3 -2540 -7z"/>
<path d="M59 3856 c0 -23 0 -785 -1 -1694 0 -1520 1 -1654 17 -1678 9 -14 27
-29 41 -34 34 -13 5034 -13 5068 0 14 5 33 21 42 35 16 24 17 138 16 1698 0
920 -1 1681 -1 1692 l-1 21 -2590 0 -2590 0 -1 -40z m1087 -736 c40 -16 821
-800 830 -834 3 -14 1 -39 -5 -54 -7 -15 -192 -208 -411 -427 l-400 -400 -46
0 c-38 0 -50 5 -70 28 -34 39 -32 87 5 129 16 18 178 182 360 363 182 182 331
334 331 338 0 4 -155 163 -344 352 -190 190 -352 355 -360 367 -33 47 -11 115
44 137 33 13 34 13 66 1z m1942 -1546 c58 -38 54 -126 -8 -157 -32 -16 -75
-17 -543 -15 l-509 3 -24 28 c-32 37 -32 87 0 124 32 37 49 38 596 35 395 -2
468 -5 488 -18z"/>
</g>
</svg>
